<svg width="20" height="20" viewBox="0 0 20 20" fill="none" xmlns="http://www.w3.org/2000/svg">
<path d="M4.32434 15.1785C5.17435 14.5478 6.1003 14.0497 7.10222 13.6843C8.10414 13.3189 9.17048 13.1362 10.3012 13.1362C11.432 13.1362 12.4984 13.3189 13.5003 13.6843C14.5022 14.0497 15.4281 14.5478 16.2781 15.1785C16.8999 14.4952 17.3926 13.7042 17.756 12.8055C18.1195 11.9067 18.3012 10.9336 18.3012 9.88621C18.3012 7.66954 17.5221 5.78204 15.9637 4.22371C14.4054 2.66537 12.5179 1.88621 10.3012 1.88621C8.08458 1.88621 6.19708 2.66537 4.63874 4.22371C3.08041 5.78204 2.30124 7.66954 2.30124 9.88621C2.30124 10.9336 2.48298 11.9067 2.84644 12.8055C3.20991 13.7042 3.70254 14.4952 4.32434 15.1785ZM10.3015 10.6362C9.38853 10.6362 8.61856 10.3228 7.99164 9.69611C7.36473 9.06937 7.05127 8.29951 7.05127 7.38651C7.05127 6.47349 7.36463 5.70352 7.99134 5.07661C8.61808 4.44969 9.38795 4.13623 10.3009 4.13623C11.214 4.13623 11.9839 4.44959 12.6108 5.07631C13.2378 5.70304 13.5512 6.47291 13.5512 7.38591C13.5512 8.29892 13.2379 9.06889 12.6111 9.69581C11.9844 10.3227 11.2145 10.6362 10.3015 10.6362ZM10.3012 19.3862C8.98201 19.3862 7.74452 19.1381 6.58877 18.6419C5.433 18.1458 4.42755 17.4701 3.57242 16.615C2.7173 15.7599 2.04167 14.7544 1.54552 13.5987C1.04935 12.4429 0.80127 11.2054 0.80127 9.88621C0.80127 8.56697 1.04935 7.32948 1.54552 6.17373C2.04167 5.01796 2.7173 4.01251 3.57242 3.15738C4.42755 2.30226 5.433 1.62663 6.58877 1.13048C7.74452 0.634314 8.98201 0.38623 10.3012 0.38623C11.6205 0.38623 12.858 0.634314 14.0137 1.13048C15.1695 1.62663 16.1749 2.30226 17.0301 3.15738C17.8852 4.01251 18.5608 5.01796 19.057 6.17373C19.5531 7.32948 19.8012 8.56697 19.8012 9.88621C19.8012 11.2054 19.5531 12.4429 19.057 13.5987C18.5608 14.7544 17.8852 15.7599 17.0301 16.615C16.1749 17.4701 15.1695 18.1458 14.0137 18.6419C12.858 19.1381 11.6205 19.3862 10.3012 19.3862ZM10.3012 17.8862C11.2038 17.8862 12.074 17.741 12.9118 17.4506C13.7497 17.1602 14.4936 16.7542 15.1436 16.2324C14.4936 15.7298 13.7593 15.3381 12.9407 15.0574C12.1221 14.7766 11.2423 14.6362 10.3012 14.6362C9.36021 14.6362 8.4788 14.775 7.657 15.0525C6.8352 15.3301 6.1025 15.7234 5.45892 16.2324C6.10892 16.7542 6.85284 17.1602 7.69067 17.4506C8.52849 17.741 9.39868 17.8862 10.3012 17.8862ZM10.3012 9.13623C10.7987 9.13623 11.2147 8.96892 11.5493 8.63431C11.884 8.29967 12.0513 7.88364 12.0513 7.38621C12.0513 6.88877 11.884 6.47274 11.5493 6.13811C11.2147 5.80349 10.7987 5.63618 10.3012 5.63618C9.80381 5.63618 9.38778 5.80349 9.05314 6.13811C8.71853 6.47274 8.55122 6.88877 8.55122 7.38621C8.55122 7.88364 8.71853 8.29967 9.05314 8.63431C9.38778 8.96892 9.80381 9.13623 10.3012 9.13623Z" fill="#D8D8D8"/>
</svg>
