<svg width="19" height="20" viewBox="0 0 19 20" fill="none" xmlns="http://www.w3.org/2000/svg">
<path d="M14.25 19.6661V16.6661H11.25V15.1662H14.25V12.1662H15.75V15.1662H18.75V16.6661H15.75V19.6661L14.25 19.6661ZM2.3077 17.4161C1.80257 17.4161 1.375 17.2411 1.025 16.8911C0.675 16.5411 0.5 16.1135 0.5 15.6084V4.22386C0.5 3.71872 0.675 3.29116 1.025 2.94116C1.375 2.59116 1.80257 2.41616 2.3077 2.41616H3.69233V0.300781H5.23075V2.41616H10.8077V0.300781H12.3076V2.41616H13.6922C14.1974 2.41616 14.625 2.59116 14.975 2.94116C15.325 3.29116 15.5 3.71872 15.5 4.22386V10.1315C15.25 10.1008 15 10.0854 14.75 10.0854C14.5 10.0854 14.25 10.1008 14 10.1315V8.22386H1.99997V15.6084C1.99997 15.6853 2.03202 15.7559 2.09612 15.82C2.16024 15.8841 2.23077 15.9161 2.3077 15.9161H9.14423C9.14423 16.1661 9.15961 16.4161 9.19038 16.6661C9.22114 16.9161 9.27755 17.1661 9.3596 17.4161H2.3077ZM1.99997 6.72388H14V4.22386C14 4.14692 13.9679 4.0764 13.9038 4.01228C13.8397 3.94818 13.7692 3.91613 13.6922 3.91613H2.3077C2.23077 3.91613 2.16024 3.94818 2.09612 4.01228C2.03202 4.0764 1.99997 4.14692 1.99997 4.22386V6.72388Z" fill="#D8D8D8"/>
</svg>
