<svg width="18" height="20" viewBox="0 0 18 20" fill="none" xmlns="http://www.w3.org/2000/svg">
<path d="M2.22909 19.4161C1.72395 19.4161 1.29639 19.2411 0.946387 18.8911C0.596387 18.5411 0.421387 18.1135 0.421387 17.6084V4.22386C0.421387 3.71872 0.596387 3.29116 0.946387 2.94116C1.29639 2.59116 1.72395 2.41616 2.22909 2.41616H3.61371V0.300781H5.15214V2.41616H12.729V0.300781H14.229V2.41616H15.6136C16.1188 2.41616 16.5463 2.59116 16.8963 2.94116C17.2463 3.29116 17.4213 3.71872 17.4213 4.22386V17.6084C17.4213 18.1135 17.2463 18.5411 16.8963 18.8911C16.5463 19.2411 16.1188 19.4161 15.6136 19.4161H2.22909ZM2.22909 17.9161H15.6136C15.6906 17.9161 15.7611 17.8841 15.8252 17.82C15.8893 17.7559 15.9214 17.6853 15.9214 17.6084V8.22386H1.92136V17.6084C1.92136 17.6853 1.95341 17.7559 2.01751 17.82C2.08163 17.8841 2.15215 17.9161 2.22909 17.9161ZM1.92136 6.72388H15.9214V4.22386C15.9214 4.14692 15.8893 4.0764 15.8252 4.01228C15.7611 3.94818 15.6906 3.91613 15.6136 3.91613H2.22909C2.15215 3.91613 2.08163 3.94818 2.01751 4.01228C1.95341 4.0764 1.92136 4.14692 1.92136 4.22386V6.72388ZM8.92136 11.9931C8.6765 11.9931 8.46785 11.9068 8.29541 11.7344C8.12298 11.562 8.03676 11.3533 8.03676 11.1085C8.03676 10.8636 8.12298 10.6549 8.29541 10.4825C8.46785 10.3101 8.6765 10.2239 8.92136 10.2239C9.16623 10.2239 9.37488 10.3101 9.54731 10.4825C9.71974 10.6549 9.80596 10.8636 9.80596 11.1085C9.80596 11.3533 9.71974 11.562 9.54731 11.7344C9.37488 11.9068 9.16623 11.9931 8.92136 11.9931ZM4.92136 11.9931C4.6765 11.9931 4.46785 11.9068 4.29541 11.7344C4.12298 11.562 4.03676 11.3533 4.03676 11.1085C4.03676 10.8636 4.12298 10.6549 4.29541 10.4825C4.46785 10.3101 4.6765 10.2239 4.92136 10.2239C5.16623 10.2239 5.37488 10.3101 5.54731 10.4825C5.71975 10.6549 5.80596 10.8636 5.80596 11.1085C5.80596 11.3533 5.71975 11.562 5.54731 11.7344C5.37488 11.9068 5.16623 11.9931 4.92136 11.9931ZM12.9214 11.9931C12.6765 11.9931 12.4678 11.9068 12.2954 11.7344C12.123 11.562 12.0368 11.3533 12.0368 11.1085C12.0368 10.8636 12.123 10.6549 12.2954 10.4825C12.4678 10.3101 12.6765 10.2239 12.9214 10.2239C13.1662 10.2239 13.3749 10.3101 13.5473 10.4825C13.7197 10.6549 13.806 10.8636 13.806 11.1085C13.806 11.3533 13.7197 11.562 13.5473 11.7344C13.3749 11.9068 13.1662 11.9931 12.9214 11.9931ZM8.92136 15.9161C8.6765 15.9161 8.46785 15.8299 8.29541 15.6575C8.12298 15.485 8.03676 15.2764 8.03676 15.0315C8.03676 14.7867 8.12298 14.578 8.29541 14.4056C8.46785 14.2331 8.6765 14.1469 8.92136 14.1469C9.16623 14.1469 9.37488 14.2331 9.54731 14.4056C9.71974 14.578 9.80596 14.7867 9.80596 15.0315C9.80596 15.2764 9.71974 15.485 9.54731 15.6575C9.37488 15.8299 9.16623 15.9161 8.92136 15.9161ZM4.92136 15.9161C4.6765 15.9161 4.46785 15.8299 4.29541 15.6575C4.12298 15.485 4.03676 15.2764 4.03676 15.0315C4.03676 14.7867 4.12298 14.578 4.29541 14.4056C4.46785 14.2331 4.6765 14.1469 4.92136 14.1469C5.16623 14.1469 5.37488 14.2331 5.54731 14.4056C5.71975 14.578 5.80596 14.7867 5.80596 15.0315C5.80596 15.2764 5.71975 15.485 5.54731 15.6575C5.37488 15.8299 5.16623 15.9161 4.92136 15.9161ZM12.9214 15.9161C12.6765 15.9161 12.4678 15.8299 12.2954 15.6575C12.123 15.485 12.0368 15.2764 12.0368 15.0315C12.0368 14.7867 12.123 14.578 12.2954 14.4056C12.4678 14.2331 12.6765 14.1469 12.9214 14.1469C13.1662 14.1469 13.3749 14.2331 13.5473 14.4056C13.7197 14.578 13.806 14.7867 13.806 15.0315C13.806 15.2764 13.7197 15.485 13.5473 15.6575C13.3749 15.8299 13.1662 15.9161 12.9214 15.9161Z" fill="#D8D8D8"/>
</svg>
