<svg width="24" height="24" viewBox="0 0 24 24" fill="none" xmlns="http://www.w3.org/2000/svg">
<mask id="mask0_1002_167" style="mask-type:alpha" maskUnits="userSpaceOnUse" x="0" y="0" width="24" height="24">
<rect width="24" height="24" fill="#D8D8D8"/>
</mask>
<g mask="url(#mask0_1002_167)">
<path d="M12.5961 11.6423C13.0218 11.1795 13.3365 10.6481 13.5403 10.0481C13.7442 9.44811 13.8461 8.82952 13.8461 8.19236C13.8461 7.55519 13.7442 6.93661 13.5403 6.33661C13.3365 5.73661 13.0218 5.2052 12.5961 4.74238C13.4743 4.84367 14.2035 5.22283 14.7836 5.87988C15.3637 6.53692 15.6538 7.30774 15.6538 8.19236C15.6538 9.07696 15.3637 9.84778 14.7836 10.5048C14.2035 11.1619 13.4743 11.541 12.5961 11.6423ZM17.8461 19.3077V16.9616C17.8461 16.4164 17.7352 15.8977 17.5134 15.4056C17.2916 14.9134 16.9769 14.4911 16.5692 14.1385C17.3359 14.3936 18.0416 14.7379 18.6865 15.1712C19.3314 15.6045 19.6538 16.2013 19.6538 16.9616V19.3077H17.8461ZM19.6538 12.75V10.75H17.6538V9.25006H19.6538V7.25006H21.1537V9.25006H23.1537V10.75H21.1537V12.75H19.6538ZM8.34614 11.6923C7.38366 11.6923 6.55971 11.3496 5.87429 10.6642C5.18889 9.97879 4.84619 9.15484 4.84619 8.19236C4.84619 7.22986 5.18889 6.40591 5.87429 5.72051C6.55971 5.03509 7.38366 4.69238 8.34614 4.69238C9.30864 4.69238 10.1326 5.03509 10.818 5.72051C11.5034 6.40591 11.8461 7.22986 11.8461 8.19236C11.8461 9.15484 11.5034 9.97879 10.818 10.6642C10.1326 11.3496 9.30864 11.6923 8.34614 11.6923ZM0.846191 19.3077V17.0846C0.846191 16.5949 0.9792 16.1414 1.24522 15.7241C1.51125 15.3068 1.8667 14.986 2.31157 14.7616C3.30002 14.277 4.29712 13.9135 5.30289 13.6712C6.30866 13.4289 7.32307 13.3078 8.34614 13.3078C9.36921 13.3078 10.3836 13.4289 11.3894 13.6712C12.3952 13.9135 13.3923 14.277 14.3807 14.7616C14.8256 14.986 15.181 15.3068 15.4471 15.7241C15.7131 16.1414 15.8461 16.5949 15.8461 17.0846V19.3077H0.846191ZM8.34614 10.1924C8.89614 10.1924 9.36697 9.99653 9.75864 9.60486C10.1503 9.21319 10.3461 8.74236 10.3461 8.19236C10.3461 7.64236 10.1503 7.17153 9.75864 6.77986C9.36697 6.38819 8.89614 6.19236 8.34614 6.19236C7.79614 6.19236 7.32531 6.38819 6.93364 6.77986C6.54197 7.17153 6.34614 7.64236 6.34614 8.19236C6.34614 8.74236 6.54197 9.21319 6.93364 9.60486C7.32531 9.99653 7.79614 10.1924 8.34614 10.1924ZM2.34614 17.8077H14.3461V17.0846C14.3461 16.8821 14.2875 16.6946 14.1702 16.5221C14.0529 16.3497 13.8936 16.209 13.6923 16.1C12.8308 15.6757 11.9523 15.3542 11.0568 15.1356C10.1614 14.917 9.25786 14.8077 8.34614 14.8077C7.43444 14.8077 6.53088 14.917 5.63544 15.1356C4.74003 15.3542 3.86154 15.6757 2.99999 16.1C2.79871 16.209 2.63942 16.3497 2.52212 16.5221C2.4048 16.6946 2.34614 16.8821 2.34614 17.0846V17.8077Z" fill="#D8D8D8"/>
</g>
</svg>
