<svg width="33" height="32" viewBox="0 0 33 32" fill="none" xmlns="http://www.w3.org/2000/svg">
<path d="M29.7145 15.7745C29.8393 22.9135 24.1527 28.8022 17.0128 28.9268C9.87577 29.051 3.98693 23.364 3.86304 16.2253C3.73734 9.08578 9.42389 3.19674 16.5616 3.07232C23.7009 2.94746 29.5897 8.63532 29.7144 15.7747L29.7145 15.7745L29.7145 15.7745Z" fill="#F7931A"/>
<path d="M21.8195 12.744C21.6227 11.0151 20.1176 10.4606 18.2273 10.3282L18.1854 7.92598L16.7231 7.95171L16.7641 10.2907C16.3796 10.2974 15.9868 10.3118 15.5965 10.3264L15.5557 7.97193L14.0943 7.99744L14.1357 10.399C13.8193 10.411 13.5084 10.4224 13.2053 10.4278L13.205 10.4203L11.1883 10.4548L11.2159 12.0165C11.2159 12.0165 12.2953 11.9772 12.2778 11.9973C12.87 11.9871 13.0688 12.3276 13.1302 12.6233L13.178 15.36C13.2189 15.3595 13.2722 15.3602 13.3328 15.3676C13.284 15.3685 13.232 15.3691 13.1783 15.3705L13.2448 19.2044C13.2222 19.3912 13.1178 19.6904 12.704 19.6983C12.7231 19.7145 11.6411 19.7166 11.6411 19.7166L11.381 21.468L13.2839 21.4348C13.6381 21.4291 13.9866 21.429 14.3288 21.4251L14.3718 23.8547L15.8325 23.8294L15.7904 21.4254C16.1917 21.4267 16.5798 21.4231 16.9588 21.4162L16.9999 23.809L18.4622 23.7833L18.4202 21.358C20.8762 21.174 22.5859 20.5247 22.7592 18.2123C22.8992 16.3504 22.0104 15.5363 20.6091 15.2256C21.4494 14.779 21.9662 14.0092 21.82 12.7441L21.8195 12.7439L21.8195 12.744ZM19.8644 17.9748C19.8969 19.7905 16.7844 19.6383 15.7934 19.6565L15.7376 16.4374C16.7288 16.4204 19.8315 16.081 19.8644 17.9748L19.8644 17.9748ZM19.105 13.4449C19.1334 15.0968 16.5373 14.9493 15.7118 14.9638L15.661 12.0443C16.4864 12.0298 19.0748 11.7221 19.1051 13.4449L19.105 13.4449Z" fill="white"/>
</svg>
