<svg width="22" height="19" viewBox="0 0 22 19" fill="none" xmlns="http://www.w3.org/2000/svg">
<path d="M17.2813 10.8911H5.13135V8.89111H17.2813L15.7313 7.34111L17.1313 5.89111L21.1313 9.89111L17.1313 13.8911L15.7313 12.4411L17.2813 10.8911ZM12.1313 6.89111V2.89111H2.13135V16.8911H12.1313V12.8911H14.1313V16.8911C14.1313 17.4411 13.9355 17.9119 13.5438 18.3036C13.1522 18.6953 12.6813 18.8911 12.1313 18.8911H2.13135C1.58135 18.8911 1.11051 18.6953 0.718848 18.3036C0.327181 17.9119 0.131348 17.4411 0.131348 16.8911V2.89111C0.131348 2.34111 0.327181 1.87028 0.718848 1.47861C1.11051 1.08695 1.58135 0.891113 2.13135 0.891113H12.1313C12.6813 0.891113 13.1522 1.08695 13.5438 1.47861C13.9355 1.87028 14.1313 2.34111 14.1313 2.89111V6.89111H12.1313Z" fill="#D8D8D8"/>
</svg>
