<svg width="25" height="25" viewBox="0 0 25 25" fill="none" xmlns="http://www.w3.org/2000/svg">
<mask id="mask0_1002_147" style="mask-type:alpha" maskUnits="userSpaceOnUse" x="0" y="0" width="25" height="25">
<rect x="0.758301" y="0.219238" width="24" height="24" fill="#D8D8D8"/>
</mask>
<g mask="url(#mask0_1002_147)">
<path d="M12.7584 15.7096C12.9712 15.7096 13.1494 15.6378 13.293 15.4942C13.4366 15.3506 13.5084 15.1724 13.5084 14.9596C13.5084 14.7468 13.4366 14.5686 13.293 14.425C13.1494 14.2814 12.9712 14.2096 12.7584 14.2096C12.5456 14.2096 12.3674 14.2814 12.2238 14.425C12.0802 14.5686 12.0084 14.7468 12.0084 14.9596C12.0084 15.1724 12.0802 15.3506 12.2238 15.4942C12.3674 15.6378 12.5456 15.7096 12.7584 15.7096ZM12.0084 13.2192H13.5084V8.46924H12.0084V13.2192ZM10.4508 21.7192L10.07 18.673C9.80203 18.5833 9.52735 18.4576 9.24593 18.2961C8.96451 18.1346 8.7129 17.9615 8.49111 17.7769L5.66996 18.9692L3.3623 14.9692L5.80268 13.125C5.7796 12.9763 5.76325 12.8269 5.75363 12.6769C5.74401 12.5269 5.7392 12.3776 5.7392 12.2288C5.7392 12.0865 5.74401 11.942 5.75363 11.7952C5.76325 11.6484 5.7796 11.4878 5.80268 11.3134L3.3623 9.46921L5.66996 5.48849L8.48148 6.67119C8.72251 6.48016 8.97989 6.30547 9.2536 6.14714C9.52734 5.98879 9.79625 5.86154 10.0604 5.76539L10.4508 2.71924H15.0661L15.4468 5.77501C15.7468 5.88398 16.0183 6.01122 16.2613 6.15674C16.5042 6.30226 16.7494 6.47374 16.9969 6.67119L19.8469 5.48849L22.1545 9.46921L19.6757 11.3423C19.7116 11.5038 19.7311 11.6548 19.7343 11.7952C19.7375 11.9355 19.7391 12.0769 19.7391 12.2192C19.7391 12.3551 19.7359 12.4933 19.7295 12.6336C19.7231 12.774 19.7 12.9346 19.6603 13.1154L22.1199 14.9692L19.8122 18.9692L16.9969 17.7672C16.7494 17.9647 16.4969 18.1394 16.2392 18.2913C15.9815 18.4432 15.7173 18.5673 15.4468 18.6634L15.0661 21.7192H10.4508ZM11.7584 20.2192H13.7238L14.0834 17.5404C14.5937 17.407 15.06 17.2176 15.4824 16.9721C15.9049 16.7266 16.3122 16.4109 16.7046 16.025L19.1892 17.0692L20.1738 15.3692L18.0046 13.7346C18.0879 13.4756 18.1446 13.2218 18.1748 12.9731C18.2049 12.7243 18.2199 12.4731 18.2199 12.2192C18.2199 11.959 18.2049 11.7077 18.1748 11.4654C18.1446 11.2231 18.0879 10.9756 18.0046 10.7231L20.193 9.06921L19.2084 7.36921L16.6949 8.42884C16.3603 8.07114 15.9594 7.75511 15.4921 7.48076C15.0247 7.2064 14.552 7.01216 14.0738 6.89806L13.7584 4.21921H11.7738L11.443 6.88844C10.9328 7.00896 10.4616 7.19357 10.0296 7.44229C9.5975 7.69101 9.18533 8.01152 8.79303 8.40384L6.3084 7.36921L5.32378 9.06921L7.4834 10.6788C7.40007 10.916 7.34174 11.1628 7.3084 11.4192C7.27507 11.6756 7.2584 11.9455 7.2584 12.2288C7.2584 12.4891 7.27507 12.7442 7.3084 12.9942C7.34174 13.2442 7.39686 13.491 7.47378 13.7346L5.32378 15.3692L6.3084 17.0692L8.7834 16.0192C9.16289 16.409 9.56865 16.7282 10.0007 16.9769C10.4328 17.2256 10.9103 17.4167 11.4334 17.55L11.7584 20.2192Z" fill="#D8D8D8"/>
</g>
</svg>
